<svg id="Layer_1" data-name="Layer 1" xmlns="http://www.w3.org/2000/svg" viewBox="0 0 1080 1080">
  <path d="M845.69,643.43c-2.45-3.8-4.59-7.45-7-10.87-5.26-7.33-10.28-14.83-15.83-22-3.09-4-5.67-8.32-8.54-12.44-3.26-4.67-6.49-9.35-9.91-13.89-5.44-7.21-10.6-14.63-15.74-22-4.2-6-8.35-12.19-12.64-18.18-4.77-6.68-9.16-13.64-14.1-20.17-5.92-7.81-11.25-16-17.06-23.9-5-6.76-10-13.61-14.89-20.43s-9.84-13.53-14.61-20.4c-3.06-4.4-5.9-9-9.18-13.2-2.79-3.62-5.26-7.48-7.91-11.21q-4.51-6.39-9.09-12.73c-3-4.12-5.95-8.2-8.9-12.32-3.41-4.76-6.78-9.55-10.27-14.46-2.39,3.53-4.49,6.67-6.64,9.77-3.16,4.53-6.37,9-9.54,13.55-4.32,6.18-8.47,12.51-12.88,18.61-5.29,7.31-10.39,14.75-15.72,22-5.57,7.64-10.74,15.58-16.34,23.2-3,4.07-5.73,8.31-8.64,12.43-4,5.56-8.14,11-12.15,16.48-1.58,2.16-3,4.46-4.55,6.85l5.73,8.15c3,4.26,6,8.51,9,12.78,1.34,1.94,2.49,4,3.91,5.87,4.7,6.19,9,12.66,13.69,18.87,5.09,6.75,9.54,14,14.28,21.06l-8.45,6.5c-.5-.75-1.13-1.65-1.7-2.58-4.59-7.53-9.88-14.61-15-21.71-5.4-7.43-10.36-15.18-16-22.45-4.23-5.45-7.81-11.4-11.67-17.14a10.18,10.18,0,0,1-.53-1.06c-1.54,2.29-3,4.5-4.49,6.65-3.27,4.65-6.58,9.28-9.89,13.9-5.06,7.08-10.1,14.16-15.21,21.2-3.72,5.14-7.59,10.2-11.15,15.42s-7.4,10.18-11,15.37a156.9,156.9,0,0,1-10,13.45c-2.95,3.44-5.19,7.49-7.81,11.22-2.92,4.14-5.91,8.23-8.89,12.32-1.76,2.44-3.57,4.85-5.5,7.46H479.27c2-2.82,4-5.54,5.88-8.24,3-4.25,6-8.51,9.1-12.73s6.2-8.43,9.28-12.66c3.25-4.48,6.45-9,9.72-13.47,4-5.5,8.19-10.92,12.18-16.46,3.68-5.11,7.18-10.36,10.83-15.5,2.94-4.13,6-8.2,9-12.28,3.87-5.23,7.82-10.4,11.64-15.68,3.15-4.33,6.15-8.78,9.21-13.17,1.08-1.55,2.17-3.09,3.48-5a62.64,62.64,0,0,0-3.59-6.38c-5.88-8.17-11.2-16.75-17.11-24.87-5.31-7.29-10.46-14.71-15.64-22.09-5-7.21-10.13-14.43-15.17-21.64-4.61-6.62-9.26-13.27-14.13-19.73-4.06-5.39-7.75-11.11-11.68-16.62-3-4.24-6-8.49-8.93-12.8Q475.8,383,468,372.07c-5.24-7.34-10.31-14.82-15.76-22-1.81-2.39-3.39-4.95-5.33-7.81-3,4.27-5.85,8.19-8.64,12.13q-4.53,6.36-9,12.76c-1.54,2.19-3,4.41-4.6,6.59-4.23,5.92-8.52,11.79-12.71,17.74-2,2.82-3.71,5.81-5.69,8.63-3.35,4.8-6.92,9.44-10.21,14.28-5.65,8.33-11.69,16.38-17.12,24.87-2.19,3.42-4.53,6.86-7,10.08s-4.37,6.59-6.72,9.72c-5.7,7.57-10.85,15.5-16.27,23.26-4.6,6.59-9.06,13.31-13.85,19.73s-9.11,13.38-14.17,19.74c-4.08,5.14-7.58,10.83-11.45,16.2-3.23,4.48-6.49,8.95-9.54,13.55-5.83,8.8-12.15,17.25-18.13,26C276.3,585.41,270.65,593.22,265,601c-4,5.52-7.8,11.24-12.11,16.57-3.55,4.39-6.47,9.29-9.66,14l-8.17,11.93H221.3c3.95-6.07,8-11.83,12.27-17.4,5.85-7.72,11.06-15.89,17.05-23.53s11.07-16,16.65-24c3-4.3,6.18-8.44,9.26-12.67,1.57-2.17,3.05-4.41,4.6-6.59,3.41-4.76,7-9.4,10.21-14.28,4.85-7.35,9.9-14.59,15.06-21.7,5.49-7.57,10.65-15.38,16.34-22.81,4-5.24,7.56-10.85,11.4-16.25,2.91-4.1,5.62-8.34,8.51-12.46q8-11.43,16-22.85c3.88-5.56,7.64-11.23,11.7-16.65,5.61-7.48,10.75-15.3,16.35-22.8,3.94-5.28,7.6-10.82,11.43-16.22s7.33-11.4,11.63-16.69c2.06-2.54,3.49-5.56,5.37-8.25,3.35-4.8,6.9-9.46,10.21-14.28,4.71-6.86,9.24-13.84,13.94-20.71,1.45-2.11,3.22-4,4.81-6,.66-.84,1.22-1.76,1.92-2.8,3.05,1,3.95,4.18,5.68,6.31,4.16,5.12,7.67,10.77,11.43,16.21,5.1,7.38,10.29,14.7,15.38,22.08,2.68,3.89,5.43,7.82,8.21,11.67,2.65,3.67,5,7.7,7.71,11.22,5,6.4,9.15,13.37,14.25,19.68,3.25,4,5.93,8.52,8.9,12.78,3.16,4.53,6.26,9.11,9.56,13.53,4.65,6.23,9.11,12.6,13.61,18.92,2.81,3.94,5.47,8,8.29,12,4.65,6.56,8.8,13.45,13.7,19.85,4.19,5.47,7.69,11.46,11.54,17.19a28.18,28.18,0,0,0,2.36,2.66c1.43-2.06,2.72-4.12,4.22-6,5.19-6.58,9.77-13.6,14.64-20.39,4-5.54,7.79-11.24,12.15-16.54,3.28-4,5.93-8.53,8.91-12.78,3.26-4.66,6.82-9.12,9.83-13.94,4.68-7.48,10.08-14.45,15-21.71q7.86-11.51,15.93-22.91c3.56-5,7.28-10,10.8-15a12.11,12.11,0,0,1,1.42-1.45c4,2.36,5.72,6.7,8.41,10.17,4.34,5.62,8.41,11.46,12.4,17.35,3.18,4.71,6.55,9.28,9.79,13.95,3,4.26,6.08,8.44,9,12.74,1.87,2.76,4,5.33,6,8q6.24,8.66,12.38,17.37c2.27,3.22,4.44,6.51,6.73,9.71,3.5,4.89,7.13,9.7,10.58,14.62,4.9,7,9.57,14.13,14.82,20.87,3.08,4,5.66,8.32,8.54,12.44,3.25,4.67,6.58,9.28,9.89,13.91,5.06,7.07,10.18,14.1,15.18,21.21,4.43,6.31,8.46,12.92,13.17,19,5.52,7.16,10.38,14.77,15.77,22,6.34,8.51,12.64,17.06,18.67,25.78,4.9,7.1,10.45,13.79,14.67,21.38,1,1.74,2.52,3.16,4.11,5.1Z"/>
</svg>
